<svg width="3996" height="908" viewBox="0 0 3996 908" fill="none" xmlns="http://www.w3.org/2000/svg">
<mask id="mask0_13_71" style="mask-type:alpha" maskUnits="userSpaceOnUse" x="-10" y="-4" width="723" height="895">
<path d="M702.5 870.5C702.5 876.023 698.023 880.5 692.5 880.5H10C4.47717 880.5 0 876.023 0 870.5V16.5C0 10.9772 4.47715 6.5 10 6.5H692.5C698.023 6.5 702.5 10.9772 702.5 16.5V870.5ZM249 242C243.477 242 239 246.477 239 252V626C239 626.053 239.009 626.106 239.025 626.156L252.025 665.656C252.092 665.861 252.284 666 252.499 666H377C382.523 666 387 661.523 387 656V252C387 246.477 382.523 242 377 242H249Z" fill="#D9D9D9"/>
<path d="M239.025 626.156L248.524 623.03L248.518 623.012L248.512 622.994L239.025 626.156ZM252.025 665.656L261.531 662.551L261.528 662.54L261.524 662.53L252.025 665.656ZM692.5 880.5V870.5H10V880.5V890.5H692.5V880.5ZM0 870.5H10V16.5H0H-10V870.5H0ZM10 6.5V16.5H692.5V6.5V-3.5H10V6.5ZM702.5 16.5H692.5V870.5H702.5H712.5V16.5H702.5ZM239 252H229V626H239H249V252H239ZM239.025 626.156L229.527 629.282L242.527 668.782L252.025 665.656L261.524 662.53L248.524 623.03L239.025 626.156ZM252.499 666V676H377V666V656H252.499V666ZM387 656H397V252H387H377V656H387ZM377 242V232H249V242V252H377V242ZM387 252H397C397 240.954 388.046 232 377 232V242V252V252H387ZM377 666V676C388.046 676 397 667.046 397 656H387H377V656V666ZM252.025 665.656L242.52 668.762C243.93 673.079 247.957 676 252.499 676V666V656C256.61 656 260.254 658.643 261.531 662.551L252.025 665.656ZM239 626H229C229 627.128 229.182 628.249 229.539 629.319L239.025 626.156L248.512 622.994C248.835 623.963 249 624.978 249 626H239ZM239 252H249V252V242V232C237.954 232 229 240.954 229 252H239ZM692.5 6.5V16.5V16.5H702.5H712.5C712.5 5.45428 703.546 -3.5 692.5 -3.5V6.5ZM0 16.5H10V16.5V6.5V-3.5C-1.0457 -3.5 -10 5.45431 -10 16.5H0ZM10 880.5V870.5H10H0H-10C-10 881.546 -1.04565 890.5 10 890.5V880.5ZM692.5 880.5V890.5C703.546 890.5 712.5 881.546 712.5 870.5H702.5H692.5V870.5V880.5Z" fill="black"/>
</mask>
<g mask="url(#mask0_13_71)">
<path d="M102.214 864.5L47.8397 770.32C46.9621 768.8 46.5 767.076 46.5 765.32V241.254C46.5 239.77 46.8304 238.304 47.4672 236.964L148.288 24.7094C149.944 21.2222 153.46 19 157.321 19H487.725C491.127 19 494.295 20.729 496.135 23.5896L583.91 160.028C584.948 161.642 585.5 163.52 585.5 165.439V659.602C585.5 661.495 584.963 663.349 583.95 664.949L457.444 864.848C455.611 867.744 452.422 869.5 448.994 869.5H110.875C107.302 869.5 104.001 867.594 102.214 864.5Z" fill="#0082E0"/>
</g>
<path d="M624 750.32V346.809C624 345.29 624.346 343.79 625.013 342.424L671.76 246.615C673.437 243.179 676.925 241 680.748 241H782.248C785.536 241 788.615 242.617 790.481 245.325L806.068 267.937C807.219 269.606 807.835 271.586 807.835 273.613V614.317C807.835 615.431 808.021 616.537 808.385 617.59L823.17 660.273C824.565 664.3 828.358 667 832.619 667H949.244C954.767 667 959.244 662.523 959.244 657V347.179C959.244 345.424 959.706 343.7 960.584 342.179L1016.11 246C1017.9 242.906 1021.2 241 1024.77 241H1125.36C1128.01 241 1130.55 242.054 1132.43 243.929L1156.07 267.571C1157.95 269.446 1159 271.99 1159 274.642V647.273C1159 649.058 1158.52 650.811 1157.62 652.35L1036.4 858.062C1034.6 861.113 1031.33 862.985 1027.79 862.985H693.273C689.701 862.985 686.4 861.079 684.613 857.985L625.34 755.32C624.462 753.8 624 752.076 624 750.32Z" fill="#0082E0"/>
<path d="M1240.92 242.601L1197.29 345.631C1196.77 346.864 1196.5 348.19 1196.5 349.53V431.5C1196.5 437.023 1200.98 441.5 1206.5 441.5H1297.5C1303.02 441.5 1307.5 445.977 1307.5 451.5V761.472C1307.5 763.446 1308.08 765.377 1309.18 767.019L1388.53 886.047C1390.39 888.829 1393.51 890.5 1396.85 890.5H1597.34C1601.12 890.5 1604.57 888.372 1606.27 885L1731.43 636.623C1732.13 635.227 1732.5 633.686 1732.5 632.123V593.642C1732.5 590.99 1731.45 588.446 1729.57 586.571L1706.43 563.429C1704.55 561.554 1702.01 560.5 1699.36 560.5H1597.16C1593.12 560.5 1589.49 562.921 1587.93 566.641L1527.73 710.547C1523.51 720.623 1508.5 717.61 1508.5 706.688V451.5C1508.5 445.977 1512.98 441.5 1518.5 441.5H1543.02C1546.16 441.5 1549.11 440.029 1551 437.527L1616.98 350.175C1618.29 348.439 1619 346.323 1619 344.148V269.142C1619 266.49 1617.95 263.946 1616.07 262.071L1593.43 239.429C1591.55 237.554 1589.01 236.5 1586.36 236.5H1518.5C1512.98 236.5 1508.5 232.023 1508.5 226.5V53.6421C1508.5 50.99 1507.45 48.4464 1505.57 46.5711L1482.43 23.4289C1480.55 21.5536 1478.01 20.5 1475.36 20.5H1365.81C1361.95 20.5 1358.44 22.7153 1356.78 26.1942L1308.47 127.457C1307.83 128.802 1307.5 130.273 1307.5 131.763V226.5C1307.5 232.023 1303.02 236.5 1297.5 236.5H1250.13C1246.11 236.5 1242.48 238.903 1240.92 242.601Z" fill="#0082E0"/>
<path d="M2114.5 133.519V225.5V226.5C2114.5 232.023 2118.98 236.5 2124.5 236.5H2274.5C2280.02 236.5 2284.5 240.977 2284.5 246.5V866C2284.5 871.523 2288.98 876 2294.5 876H2403.11C2406.2 876 2409.11 874.575 2411 872.139L2479.39 784.208C2480.76 782.453 2481.5 780.293 2481.5 778.069V246.5C2481.5 240.977 2485.98 236.5 2491.5 236.5H2580.27C2583.55 236.5 2586.61 234.897 2588.48 232.208L2656.71 134.074C2657.88 132.398 2658.5 130.406 2658.5 128.365V56.5575C2658.5 53.9555 2657.49 51.456 2655.67 49.5896L2627.45 20.5321C2625.56 18.5938 2622.98 17.5 2620.27 17.5H2169.14C2165.12 17.5 2161.48 19.9113 2159.92 23.6194L2115.28 129.639C2114.77 130.867 2114.5 132.187 2114.5 133.519Z" fill="#0082E0"/>
<mask id="mask1_13_71" style="mask-type:alpha" maskUnits="userSpaceOnUse" x="2484" y="164" width="772" height="737">
<path d="M3245.47 174.665L2994.47 890.211C2994.4 890.411 2994.21 890.545 2994 890.545H2504.58C2499.06 890.545 2494.58 886.068 2494.58 880.545V184C2494.58 178.477 2499.06 174 2504.58 174H3245C3245.34 174 3245.59 174.34 3245.47 174.665ZM2715.01 456.5C2709.48 456.5 2705.01 460.977 2705.01 466.5V633.748C2705.01 636.443 2706.1 639.025 2708.03 640.907L2744.69 676.66C2746.56 678.481 2749.07 679.5 2751.67 679.5H2855.01C2860.53 679.5 2865.01 675.023 2865.01 669.5V466.5C2865.01 460.977 2860.53 456.5 2855.01 456.5H2715.01Z" fill="#D9D9D9"/>
<path d="M3245.47 174.665L3236.04 171.354L3236.04 171.355L3245.47 174.665ZM2994.47 890.211L3003.91 893.522L3003.91 893.521L2994.47 890.211ZM2708.03 640.907L2701.04 648.066L2701.04 648.067L2708.03 640.907ZM2744.69 676.66L2737.71 683.82L2737.71 683.821L2744.69 676.66ZM3245.47 174.665L3236.04 171.355L2985.04 886.901L2994.47 890.211L3003.91 893.521L3254.91 177.975L3245.47 174.665ZM2994 890.545V880.545H2504.58V890.545V900.545H2994V890.545ZM2494.58 880.545H2504.58V184H2494.58H2484.58V880.545H2494.58ZM2504.58 174V184H3245V174V164H2504.58V174ZM2705.01 466.5H2695.01V633.748H2705.01H2715.01V466.5H2705.01ZM2708.03 640.907L2701.04 648.067L2737.71 683.82L2744.69 676.66L2751.67 669.5L2715.01 633.747L2708.03 640.907ZM2751.67 679.5V689.5H2855.01V679.5V669.5H2751.67V679.5ZM2865.01 669.5H2875.01V466.5H2865.01H2855.01V669.5H2865.01ZM2855.01 456.5V446.5H2715.01V456.5V466.5H2855.01V456.5ZM2865.01 466.5H2875.01C2875.01 455.454 2866.05 446.5 2855.01 446.5V456.5V466.5V466.5H2865.01ZM2855.01 679.5V689.5C2866.05 689.5 2875.01 680.546 2875.01 669.5H2865.01H2855.01V669.5V679.5ZM2744.69 676.66L2737.71 683.821C2741.45 687.461 2746.46 689.5 2751.67 689.5V679.5V669.5L2751.67 669.5L2744.69 676.66ZM2705.01 633.748H2695.01C2695.01 639.14 2697.19 644.303 2701.04 648.066L2708.03 640.907L2715.01 633.749C2715.01 633.748 2715.01 633.748 2715.01 633.748C2715.01 633.748 2715.01 633.748 2715.01 633.748C2715.01 633.748 2715.01 633.748 2715.01 633.747C2715.01 633.747 2715.01 633.746 2715.01 633.747C2715.01 633.747 2715.01 633.747 2715.01 633.747C2715.01 633.748 2715.01 633.748 2715.01 633.748H2705.01ZM2705.01 466.5H2715.01V466.5V456.5V446.5C2703.96 446.5 2695.01 455.454 2695.01 466.5H2705.01ZM3245 174V184C3238.45 184 3233.87 177.532 3236.04 171.354L3245.47 174.665L3254.91 177.977C3257.3 171.148 3252.24 164 3245 164V174ZM2494.58 184H2504.58V184V174V164C2493.54 164 2484.58 172.954 2484.58 184H2494.58ZM2504.58 890.545V880.545H2504.58H2494.58H2484.58C2484.58 891.591 2493.54 900.545 2504.58 900.545V890.545ZM2994.47 890.211L2985.04 886.9C2986.37 883.093 2989.97 880.545 2994 880.545V890.545V900.545C2998.46 900.545 3002.43 897.729 3003.91 893.522L2994.47 890.211Z" fill="black"/>
</mask>
<g mask="url(#mask1_13_71)">
<path d="M2520 760.714V457.424C2520 455.831 2520.38 454.261 2521.11 452.845L2628.21 244.921C2629.92 241.592 2633.35 239.5 2637.1 239.5H2959.81C2963.39 239.5 2966.69 241.406 2968.47 244.5L3053.16 391.179C3054.04 392.7 3054.5 394.424 3054.5 396.18V658.546C3054.5 660.302 3054.04 662.026 3053.16 663.546L2933.39 871C2931.6 874.094 2928.3 876 2924.73 876H2580.78C2576.94 876 2573.44 873.802 2571.77 870.344L2520.99 765.059C2520.34 763.704 2520 762.219 2520 760.714Z" fill="#0082E0"/>
</g>
<path d="M3439.5 247.785V761.256C3439.5 762.734 3439.83 764.193 3440.46 765.529L3492.79 876.273C3494.45 879.77 3497.97 882 3501.83 882H3842.01C3845.7 882 3849.09 879.973 3850.83 876.725L3976.81 641.713C3977.59 640.26 3978 638.637 3978 636.989V592.296C3978 589.553 3976.87 586.931 3974.88 585.043L3951.39 562.747C3949.54 560.983 3947.07 560 3944.51 560H3841.24C3837.17 560 3833.5 562.472 3831.97 566.25L3792.53 663.75C3791 667.528 3787.33 670 3783.26 670H3664.09C3659.37 670 3655.3 666.703 3654.31 662.089L3632.72 561.033C3632.57 560.346 3632.5 559.646 3632.5 558.944V255.5C3632.5 249.977 3636.98 245.5 3642.5 245.5H3780C3785.52 245.5 3790 249.977 3790 255.5V336.5C3790 342.023 3794.48 346.5 3800 346.5H3899.69C3903.01 346.5 3906.11 344.851 3907.97 342.1L3976.28 241.037C3977.4 239.384 3978 237.433 3978 235.437V161.364C3978 159.492 3977.47 157.658 3976.48 156.07L3895.44 26.2056C3893.61 23.2786 3890.4 21.5 3886.95 21.5H3553.78C3549.94 21.5 3546.44 23.6984 3544.77 27.157L3440.49 243.442C3439.84 244.797 3439.5 246.281 3439.5 247.785Z" fill="#0082E0"/>
<mask id="mask2_13_71" style="mask-type:alpha" maskUnits="userSpaceOnUse" x="29" y="0" width="3967" height="908">
<mask id="mask3_13_71" style="mask-type:alpha" maskUnits="userSpaceOnUse" x="-18" y="-11" width="738" height="909">
<path d="M702.5 870.5C702.5 876.023 698.023 880.5 692.5 880.5H10C4.47717 880.5 0 876.023 0 870.5V16.5C0 10.9772 4.47715 6.5 10 6.5H692.5C698.023 6.5 702.5 10.9772 702.5 16.5V870.5ZM249 242C243.477 242 239 246.477 239 252V626C239 626.053 239.009 626.106 239.025 626.156L252.025 665.656C252.092 665.861 252.284 666 252.499 666H377C382.523 666 387 661.523 387 656V252C387 246.477 382.523 242 377 242H249Z" fill="#D9D9D9"/>
<path d="M239.025 626.156L255.648 620.685L255.638 620.654L255.627 620.622L239.025 626.156ZM252.025 665.656L268.66 660.222L268.654 660.203L268.648 660.185L252.025 665.656ZM692.5 880.5V863H10V880.5V898H692.5V880.5ZM0 870.5H17.5V16.5H0H-17.5V870.5H0ZM10 6.5V24H692.5V6.5V-11H10V6.5ZM702.5 16.5H685V870.5H702.5H720V16.5H702.5ZM239 252H221.5V626H239H256.5V252H239ZM239.025 626.156L222.403 631.627L235.403 671.127L252.025 665.656L268.648 660.185L255.648 620.685L239.025 626.156ZM252.499 666V683.5H377V666V648.5H252.499V666ZM387 656H404.5V252H387H369.5V656H387ZM377 242V224.5H249V242V259.5H377V242ZM387 252H404.5C404.5 236.812 392.188 224.5 377 224.5V242V259.5C372.858 259.5 369.5 256.142 369.5 252H387ZM377 666V683.5C392.188 683.5 404.5 671.188 404.5 656H387H369.5C369.5 651.858 372.858 648.5 377 648.5V666ZM252.025 665.656L235.391 671.091C237.809 678.493 244.713 683.5 252.499 683.5V666V648.5C259.855 648.5 266.376 653.23 268.66 660.222L252.025 665.656ZM239 626H221.5C221.5 627.934 221.812 629.856 222.423 631.69L239.025 626.156L255.627 620.622C256.205 622.356 256.5 624.172 256.5 626H239ZM239 252H256.5C256.5 256.142 253.142 259.5 249 259.5V242V224.5C233.812 224.5 221.5 236.812 221.5 252H239ZM692.5 6.5V24C688.358 24 685 20.6422 685 16.5H702.5H720C720 1.31213 707.688 -11 692.5 -11V6.5ZM0 16.5H17.5C17.5 20.6421 14.1421 24 10 24V6.5V-11C-5.18783 -11 -17.5 1.31217 -17.5 16.5H0ZM10 880.5V863C14.1421 863 17.5 866.358 17.5 870.5H0H-17.5C-17.5 885.688 -5.18777 898 10 898V880.5ZM692.5 880.5V898C707.688 898 720 885.688 720 870.5H702.5H685C685 866.358 688.358 863 692.5 863V880.5Z" fill="black"/>
</mask>
<g mask="url(#mask3_13_71)">
<path d="M102.214 864.5L47.8397 770.32C46.9621 768.8 46.5 767.076 46.5 765.32V241.254C46.5 239.77 46.8304 238.304 47.4672 236.964L148.288 24.7094C149.944 21.2222 153.46 19 157.321 19H487.725C491.127 19 494.295 20.729 496.135 23.5896L583.91 160.028C584.948 161.642 585.5 163.52 585.5 165.439V659.602C585.5 661.495 584.963 663.349 583.95 664.949L457.444 864.848C455.611 867.744 452.422 869.5 448.994 869.5H110.875C107.302 869.5 104.001 867.594 102.214 864.5Z" stroke="#E6EFEA" stroke-width="35"/>
<path d="M376.5 242.5H249.5C243.977 242.5 239.5 246.977 239.5 252.5V624.397C239.5 625.459 239.669 626.514 240.001 627.523L250.238 658.626C251.588 662.728 255.418 665.5 259.737 665.5H376.5C382.023 665.5 386.5 661.023 386.5 655.5V252.5C386.5 246.977 382.023 242.5 376.5 242.5Z" stroke="#E6EFEA" stroke-width="35"/>
</g>
<path d="M624 750.32V346.809C624 345.29 624.346 343.79 625.013 342.424L671.76 246.615C673.437 243.179 676.925 241 680.748 241H782.248C785.536 241 788.615 242.617 790.481 245.325L806.068 267.937C807.219 269.606 807.835 271.586 807.835 273.613V614.317C807.835 615.431 808.021 616.537 808.385 617.59L823.17 660.273C824.565 664.3 828.358 667 832.619 667H949.244C954.767 667 959.244 662.523 959.244 657V347.179C959.244 345.424 959.706 343.7 960.584 342.179L1016.11 246C1017.9 242.906 1021.2 241 1024.77 241H1125.36C1128.01 241 1130.55 242.054 1132.43 243.929L1156.07 267.571C1157.95 269.446 1159 271.99 1159 274.642V647.273C1159 649.058 1158.52 650.811 1157.62 652.35L1036.4 858.062C1034.6 861.113 1031.33 862.985 1027.79 862.985H693.273C689.701 862.985 686.4 861.079 684.613 857.985L625.34 755.32C624.462 753.8 624 752.076 624 750.32Z" stroke="#E6EFEA" stroke-width="35"/>
<path d="M1240.92 242.601L1197.29 345.631C1196.77 346.864 1196.5 348.19 1196.5 349.53V431.5C1196.5 437.023 1200.98 441.5 1206.5 441.5H1297.5C1303.02 441.5 1307.5 445.977 1307.5 451.5V761.472C1307.5 763.446 1308.08 765.377 1309.18 767.019L1388.53 886.047C1390.39 888.829 1393.51 890.5 1396.85 890.5H1597.34C1601.12 890.5 1604.57 888.372 1606.27 885L1731.43 636.623C1732.13 635.227 1732.5 633.686 1732.5 632.123V593.642C1732.5 590.99 1731.45 588.446 1729.57 586.571L1706.43 563.429C1704.55 561.554 1702.01 560.5 1699.36 560.5H1597.16C1593.12 560.5 1589.49 562.921 1587.93 566.641L1527.73 710.547C1523.51 720.623 1508.5 717.61 1508.5 706.688V451.5C1508.5 445.977 1512.98 441.5 1518.5 441.5H1543.02C1546.16 441.5 1549.11 440.029 1551 437.527L1616.98 350.175C1618.29 348.439 1619 346.323 1619 344.148V269.142C1619 266.49 1617.95 263.946 1616.07 262.071L1593.43 239.429C1591.55 237.554 1589.01 236.5 1586.36 236.5H1518.5C1512.98 236.5 1508.5 232.023 1508.5 226.5V53.6421C1508.5 50.99 1507.45 48.4464 1505.57 46.5711L1482.43 23.4289C1480.55 21.5536 1478.01 20.5 1475.36 20.5H1365.81C1361.95 20.5 1358.44 22.7153 1356.78 26.1942L1308.47 127.457C1307.83 128.802 1307.5 130.273 1307.5 131.763V226.5C1307.5 232.023 1303.02 236.5 1297.5 236.5H1250.13C1246.11 236.5 1242.48 238.903 1240.92 242.601Z" stroke="#E6EFEA" stroke-width="35"/>
<path d="M2114.5 133.519V225.5V226.5C2114.5 232.023 2118.98 236.5 2124.5 236.5H2274.5C2280.02 236.5 2284.5 240.977 2284.5 246.5V866C2284.5 871.523 2288.98 876 2294.5 876H2403.11C2406.2 876 2409.11 874.575 2411 872.139L2479.39 784.208C2480.76 782.453 2481.5 780.293 2481.5 778.069V246.5C2481.5 240.977 2485.98 236.5 2491.5 236.5H2580.27C2583.55 236.5 2586.61 234.897 2588.48 232.208L2656.71 134.074C2657.88 132.398 2658.5 130.406 2658.5 128.365V56.5575C2658.5 53.9555 2657.49 51.456 2655.67 49.5896L2627.45 20.5321C2625.56 18.5938 2622.98 17.5 2620.27 17.5H2169.14C2165.12 17.5 2161.48 19.9113 2159.92 23.6194L2115.28 129.639C2114.77 130.867 2114.5 132.187 2114.5 133.519Z" stroke="#E6EFEA" stroke-width="35"/>
<mask id="mask4_13_71" style="mask-type:alpha" maskUnits="userSpaceOnUse" x="2477" y="156" width="787" height="753">
<path d="M3245.47 174.665L2994.47 890.211C2994.4 890.411 2994.21 890.545 2994 890.545H2504.58C2499.06 890.545 2494.58 886.068 2494.58 880.545V184C2494.58 178.477 2499.06 174 2504.58 174H3245C3245.34 174 3245.59 174.34 3245.47 174.665ZM2724.51 466C2718.98 466 2714.51 470.477 2714.51 476V633.747C2714.51 633.882 2714.56 634.011 2714.66 634.105L2751.32 669.858C2751.42 669.949 2751.54 670 2751.67 670H2845.51C2851.03 670 2855.51 665.523 2855.51 660V476C2855.51 470.477 2851.03 466 2845.51 466H2724.51Z" fill="#D9D9D9"/>
<path d="M3245.47 174.665L3228.96 168.87L3228.96 168.872L3245.47 174.665ZM2994.47 890.211L3010.98 896.005L3010.99 896.004L2994.47 890.211ZM2714.66 634.105L2726.88 621.576L2726.87 621.57L2714.66 634.105ZM2751.32 669.858L2739.11 682.388L2739.11 682.394L2739.12 682.4L2751.32 669.858ZM3245.47 174.665L3228.96 168.872L2977.96 884.418L2994.47 890.211L3010.99 896.004L3261.99 180.458L3245.47 174.665ZM2994 890.545V873.045H2504.58V890.545V908.045H2994V890.545ZM2494.58 880.545H2512.08V184H2494.58H2477.08V880.545H2494.58ZM2504.58 174V191.5H3245V174V156.5H2504.58V174ZM2714.51 476H2697.01V633.747H2714.51H2732.01V476H2714.51ZM2714.66 634.105L2702.44 646.635L2739.11 682.388L2751.32 669.858L2763.54 657.329L2726.88 621.576L2714.66 634.105ZM2751.67 670V687.5H2845.51V670V652.5H2751.67V670ZM2855.51 660H2873.01V476H2855.51H2838.01V660H2855.51ZM2845.51 466V448.5H2724.51V466V483.5H2845.51V466ZM2855.51 476H2873.01C2873.01 460.812 2860.69 448.5 2845.51 448.5V466V483.5C2841.36 483.5 2838.01 480.142 2838.01 476H2855.51ZM2845.51 670V687.5C2860.69 687.5 2873.01 675.188 2873.01 660H2855.51H2838.01C2838.01 655.858 2841.36 652.5 2845.51 652.5V670ZM2751.32 669.858L2739.12 682.4C2742.48 685.67 2746.98 687.5 2751.67 687.5V670V652.5C2756.1 652.5 2760.36 654.228 2763.53 657.317L2751.32 669.858ZM2714.51 633.747H2697.01C2697.01 638.603 2698.97 643.252 2702.45 646.641L2714.66 634.105L2726.87 621.57C2730.15 624.77 2732.01 629.161 2732.01 633.747H2714.51ZM2714.51 476H2732.01C2732.01 480.142 2728.65 483.5 2724.51 483.5V466V448.5C2709.32 448.5 2697.01 460.812 2697.01 476H2714.51ZM3245 174V191.5C3233.28 191.5 3225.08 179.926 3228.96 168.87L3245.47 174.665L3261.98 180.46C3266.09 168.754 3257.4 156.5 3245 156.5V174ZM2494.58 184H2512.08C2512.08 188.142 2508.72 191.5 2504.58 191.5V174V156.5C2489.39 156.5 2477.08 168.812 2477.08 184H2494.58ZM2504.58 890.545V873.045C2508.72 873.045 2512.08 876.403 2512.08 880.545H2494.58H2477.08C2477.08 895.733 2489.39 908.045 2504.58 908.045V890.545ZM2994.47 890.211L2977.96 884.417C2980.35 877.605 2986.78 873.045 2994 873.045V890.545V908.045C3001.64 908.045 3008.45 903.217 3010.98 896.005L2994.47 890.211Z" fill="black"/>
</mask>
<g mask="url(#mask4_13_71)">
<path d="M2520 760.714V457.424C2520 455.831 2520.38 454.261 2521.11 452.845L2628.21 244.921C2629.92 241.592 2633.35 239.5 2637.1 239.5H2959.81C2963.39 239.5 2966.69 241.406 2968.47 244.5L3053.16 391.179C3054.04 392.7 3054.5 394.424 3054.5 396.18V658.546C3054.5 660.302 3054.04 662.026 3053.16 663.546L2933.39 871C2931.6 874.094 2928.3 876 2924.73 876H2580.78C2576.94 876 2573.44 873.802 2571.77 870.344L2520.99 765.059C2520.34 763.704 2520 762.219 2520 760.714Z" stroke="#E6EFEA" stroke-width="35"/>
<path d="M2845.01 466.5H2725.01C2719.48 466.5 2715.01 470.977 2715.01 476.5V629.531C2715.01 632.227 2716.1 634.808 2718.03 636.691L2748.76 666.66C2750.63 668.481 2753.13 669.5 2755.74 669.5H2845.01C2850.53 669.5 2855.01 665.023 2855.01 659.5V476.5C2855.01 470.977 2850.53 466.5 2845.01 466.5Z" fill="#D9D9D9" stroke="#E6EFEA" stroke-width="35"/>
</g>
<path d="M3439.5 247.785V761.256C3439.5 762.734 3439.83 764.193 3440.46 765.529L3492.79 876.273C3494.45 879.77 3497.97 882 3501.83 882H3842.01C3845.7 882 3849.09 879.973 3850.83 876.725L3976.81 641.713C3977.59 640.26 3978 638.637 3978 636.989V592.296C3978 589.553 3976.87 586.931 3974.88 585.043L3951.39 562.747C3949.54 560.983 3947.07 560 3944.51 560H3841.24C3837.17 560 3833.5 562.472 3831.97 566.25L3792.53 663.75C3791 667.528 3787.33 670 3783.26 670H3664.09C3659.37 670 3655.3 666.703 3654.31 662.089L3632.72 561.033C3632.57 560.346 3632.5 559.646 3632.5 558.944V255.5C3632.5 249.977 3636.98 245.5 3642.5 245.5H3780C3785.52 245.5 3790 249.977 3790 255.5V336.5C3790 342.023 3794.48 346.5 3800 346.5H3899.69C3903.01 346.5 3906.11 344.851 3907.97 342.1L3976.28 241.037C3977.4 239.384 3978 237.433 3978 235.437V161.364C3978 159.492 3977.47 157.658 3976.48 156.07L3895.44 26.2056C3893.61 23.2786 3890.4 21.5 3886.95 21.5H3553.78C3549.94 21.5 3546.44 23.6984 3544.77 27.157L3440.49 243.442C3439.84 244.797 3439.5 246.281 3439.5 247.785Z" stroke="#E6EFEA" stroke-width="35"/>
</mask>
<g mask="url(#mask2_13_71)">
<rect x="-456" y="-959.5" width="5389" height="2484" fill="#001136" fill-opacity="0.99"/>
<rect x="-456" y="-959.5" width="5389" height="2484" fill="url(#paint0_linear_13_71)"/>
</g>
<defs>
<linearGradient id="paint0_linear_13_71" x1="2179" y1="74.5" x2="2092.5" y2="912.5" gradientUnits="userSpaceOnUse">
<stop stop-color="#000E6C" stop-opacity="0"/>
<stop offset="1" stop-color="#57B4DB" stop-opacity="0.48"/>
</linearGradient>
</defs>
</svg>
